<?xml version="1.0" standalone="no"?>
<!DOCTYPE svg PUBLIC "-//W3C//DTD SVG 20010904//EN"
 "http://www.w3.org/TR/2001/REC-SVG-20010904/DTD/svg10.dtd">
<svg version="1.0" xmlns="http://www.w3.org/2000/svg"
 width="512.000000pt" height="512.000000pt" viewBox="0 0 512.000000 512.000000"
 preserveAspectRatio="xMidYMid meet">

<g transform="translate(0.000000,512.000000) scale(0.100000,-0.100000)"
fill="#000000" stroke="none">
<path d="M1845 4951 c-90 -22 -173 -90 -215 -176 -24 -47 -25 -61 -28 -252
l-3 -203 -589 -2 c-577 -3 -589 -3 -616 -24 -53 -39 -69 -71 -69 -134 0 -63
16 -95 69 -134 25 -19 44 -21 217 -24 l189 -3 0 -1668 c0 -1629 0 -1670 20
-1745 28 -109 63 -170 150 -256 86 -87 147 -122 256 -150 75 -19 115 -20 1334
-20 1219 0 1259 1 1334 20 109 28 170 63 256 150 87 86 122 147 150 256 20 75
20 116 20 1745 l0 1668 189 3 c173 3 192 5 217 24 53 39 69 71 69 134 0 63
-16 95 -69 134 -27 21 -39 21 -616 24 l-588 2 -4 203 c-3 190 -5 205 -28 252
-31 64 -91 124 -155 155 l-50 25 -705 2 c-388 0 -718 -2 -735 -6z m1355 -471
l0 -160 -640 0 -640 0 0 160 0 160 640 0 640 0 0 -160z m800 -2142 c0 -1651
-1 -1663 -21 -1708 -27 -60 -64 -98 -124 -126 l-50 -24 -1245 0 c-1231 0
-1246 1 -1290 21 -60 27 -98 64 -126 124 l-24 50 0 1663 0 1662 1440 0 1440 0
0 -1662z"/>
<path d="M1965 3346 c-41 -18 -83 -69 -90 -109 -3 -18 -4 -478 -3 -1024 3
-984 3 -992 24 -1019 38 -52 71 -69 132 -69 70 0 115 28 143 89 18 39 19 87
19 1026 0 939 -1 987 -19 1026 -10 23 -33 51 -51 64 -39 28 -113 36 -155 16z"/>
<path d="M3040 3353 c-38 -16 -74 -50 -91 -87 -18 -39 -19 -87 -19 -1026 0
-939 1 -987 19 -1026 28 -61 73 -89 143 -89 61 0 94 17 132 69 21 27 21 33 21
1046 0 1013 0 1019 -21 1046 -34 46 -69 67 -121 70 -26 2 -55 1 -63 -3z"/>
</g>
</svg>
